# xmcd CD database file
# Copyright (C) 1993-1998 Ti Kan
# 
# Track frame offsets:
#     150
#     16382
#     33982
#     50047
#     66925
#     84210
#     101922
#     114879
#     133927
#     146795
#     163372
#     181047
#     200777
#     215085
#     231530
#     243502
#     258367
#     277967
#     293637
#     313107
# 
# Disc length: 4391 seconds
# 
# Revision: 2
# Processed by: cddbd v1.4b41PL1 Copyright (c) Steve Scherf et al.
# Submitted via: DiscPlay 4.0.4
# 
DISCID=37112514
DTITLE=Kenny Rogers - 20 Greatest Hits
DYEAR=1900
DGENRE=
TTITLE0=Lucille
TTITLE1=Lady
TTITLE2=The Gambler
TTITLE3=Love Lifted Me
TTITLE4=We've Got Tonight
TTITLE5=Scarlet Fever
TTITLE6=Love Or Something Like It
TTITLE7=She Believes In Me
TTITLE8=Ruby, Don't Take Your Love To Town
TTITLE9=Don't Fall In Love With A Dreamer
TTITLE10=You Were A Good Friend
TTITLE11=Through The Years
TTITLE12=Daytime Friends
TTITLE13=You Decorated My Life
TTITLE14=Reuben James
TTITLE15='till I Can Make It On My Own
TTITLE16=Coward Of The County
TTITLE17=I Don't Need You
TTITLE18=Something's Burning
TTITLE19=Love Will Turn You Around
EXTD=
EXTT0=
EXTT1=
EXTT2=
EXTT3=
EXTT4=Duet with Sheena Easton\n
EXTT5=
EXTT6=
EXTT7=
EXTT8=
EXTT9=Duet with Kim Carnes\n
EXTT10=
EXTT11=
EXTT12=
EXTT13=Duet with Dottie West\n
EXTT14=
EXTT15=
EXTT16=
EXTT17=
EXTT18=
EXTT19=Theme from the Motion Picture Six \npack\n
PLAYORDER=
